<?xml version="1.0" encoding="utf-8"?>
<!-- Generator: Adobe Illustrator 16.2.1, SVG Export Plug-In . SVG Version: 6.00 Build 0)  -->
<!DOCTYPE svg PUBLIC "-//W3C//DTD SVG 1.1//EN" "http://www.w3.org/Graphics/SVG/1.1/DTD/svg11.dtd">
<svg version="1.1" id="Layer_1" xmlns="http://www.w3.org/2000/svg" xmlns:xlink="http://www.w3.org/1999/xlink" x="0px" y="0px"
	 width="435px" height="60px" viewBox="0 0 435 60" enable-background="new 0 0 435 60" xml:space="preserve">
<g>
	<path fill="#5D7208" d="M323.475,48.728c0,3.187-2.584,5.77-5.771,5.77H281.16c-3.186,0-5.77-2.583-5.77-5.77V12.183
		c0-3.186,2.584-5.77,5.77-5.77h36.544c3.187,0,5.771,2.583,5.771,5.77V48.728z"/>
	<path fill="#5D7208" d="M371.56,48.932c0,3.188-2.584,5.77-5.771,5.77h-36.544c-3.187,0-5.771-2.582-5.771-5.77V12.387
		c0-3.186,2.584-5.77,5.771-5.77h36.544c3.187,0,5.771,2.583,5.771,5.77V48.932z"/>
	<path fill="#5D7208" d="M419.644,48.932c0,3.188-2.584,5.77-5.77,5.77h-36.545c-3.187,0-5.77-2.582-5.77-5.77V12.388
		c0-3.186,2.583-5.77,5.77-5.77h36.545c3.186,0,5.77,2.584,5.77,5.77V48.932z"/>
	<linearGradient id="SVGID_1_" gradientUnits="userSpaceOnUse" x1="299.7051" y1="53.1309" x2="299.7051" y2="5.0474">
		<stop  offset="0" style="stop-color:#AFD13C"/>
		<stop  offset="1" style="stop-color:#D2DE28"/>
	</linearGradient>
	<path fill="url(#SVGID_1_)" d="M323.748,47.361c0,3.187-2.583,5.77-5.771,5.77h-36.544c-3.187,0-5.771-2.583-5.771-5.77V10.817
		c0-3.186,2.584-5.77,5.771-5.77h36.544c3.188,0,5.771,2.584,5.771,5.77V47.361z"/>
	<linearGradient id="SVGID_2_" gradientUnits="userSpaceOnUse" x1="347.79" y1="53.335" x2="347.79" y2="5.251">
		<stop  offset="0" style="stop-color:#AFD13C"/>
		<stop  offset="1" style="stop-color:#D2DE28"/>
	</linearGradient>
	<path fill="url(#SVGID_2_)" d="M371.832,47.565c0,3.187-2.583,5.77-5.77,5.77h-36.545c-3.186,0-5.77-2.583-5.77-5.77V11.021
		c0-3.186,2.584-5.77,5.77-5.77h36.545c3.187,0,5.77,2.584,5.77,5.77V47.565z"/>
	<linearGradient id="SVGID_3_" gradientUnits="userSpaceOnUse" x1="395.875" y1="53.335" x2="395.875" y2="5.2515">
		<stop  offset="0" style="stop-color:#AFD13C"/>
		<stop  offset="1" style="stop-color:#D2DE28"/>
	</linearGradient>
	<path fill="url(#SVGID_3_)" d="M419.917,47.565c0,3.187-2.583,5.77-5.771,5.77h-36.544c-3.186,0-5.771-2.583-5.771-5.77V11.021
		c0-3.186,2.585-5.771,5.771-5.771h36.544c3.188,0,5.771,2.584,5.771,5.771V47.565z"/>
	<g>
		<path fill="#FFFFFF" d="M312.436,43.402h-5.04V33.166l-7.691,11.03l-7.689-11.028v10.234h-5.038V17.176l12.713,18.187
			l12.746-18.235V43.402z"/>
		<path fill="#FFFFFF" d="M359.327,17.74L347.79,43.994L336.254,17.74h5.504l6.019,13.697l6.047-13.697H359.327z"/>
		<path fill="#FFFFFF" d="M407.079,40.148c-2.563,2.565-5.658,3.846-9.282,3.846s-6.718-1.28-9.281-3.846
			c-2.563-2.562-3.846-5.656-3.846-9.28c0-3.625,1.282-6.719,3.846-9.282c2.563-2.564,5.657-3.846,9.281-3.846
			s6.719,1.282,9.282,3.846l-3.555,3.553c-1.591-1.574-3.499-2.359-5.728-2.359c-2.228,0-4.132,0.79-5.715,2.374
			c-1.582,1.582-2.374,3.486-2.374,5.715c0,2.228,0.792,4.133,2.374,5.715c1.583,1.583,3.487,2.372,5.715,2.372
			c2.229,0,4.137-0.787,5.728-2.36L407.079,40.148z"/>
	</g>
	<path fill="#333333" stroke="#666666" stroke-miterlimit="10" d="M312.436,41.829h-5.04V31.592l-7.691,11.031l-7.689-11.03v10.236
		h-5.038V15.602l12.713,18.188l12.746-18.236V41.829z"/>
	<path fill="#333333" stroke="#666666" stroke-miterlimit="10" d="M359.327,16.167L347.79,42.42l-11.536-26.253h5.504l6.019,13.696
		l6.047-13.696H359.327z"/>
	<path fill="#333333" stroke="#666666" stroke-miterlimit="10" d="M407.079,38.574c-2.563,2.565-5.658,3.846-9.282,3.846
		s-6.718-1.28-9.281-3.846c-2.563-2.562-3.846-5.656-3.846-9.281c0-3.624,1.282-6.718,3.846-9.282
		c2.563-2.563,5.657-3.846,9.281-3.846s6.719,1.282,9.282,3.846l-3.555,3.554c-1.591-1.574-3.499-2.359-5.728-2.359
		c-2.228,0-4.132,0.79-5.715,2.373c-1.582,1.582-2.374,3.486-2.374,5.715c0,2.228,0.792,4.133,2.374,5.715
		c1.583,1.583,3.487,2.373,5.715,2.373c2.229,0,4.137-0.787,5.728-2.361L407.079,38.574z"/>
	<g>
		<path fill="#FFFFFF" d="M197.847,14.539c-2.679-0.178-5.825,0.162-9.144,1.039c-1.344,0.355-2.712,0.789-4.091,1.322
			c-1.226,0.474-2.399,0.998-3.511,1.56v17.879v11.213h7.85V34.784V23.509c2.471-1.544,6.551-2.719,9.271-1.606h1.051v-7.215v-0.202
			C198.793,14.485,198.318,14.503,197.847,14.539z"/>
		<path fill="#FFFFFF" d="M17.143,4.023v35.476c0,9.458-3.461,15.33-12.917,15.33H2v-7.541h1.978c4.08-0.062,4.821-2.41,4.821-6.181
			V9.99"/>
		<path fill="#FFFFFF" d="M77.405,14.901h7.417L74.191,44.383c-0.865,2.162-2.657,3.461-4.944,3.523c-2.411,0-4.389-1.236-5.192-3.4
			L53.486,14.901h8.406l7.664,22.932L77.405,14.901z"/>
		<path fill="#FFFFFF" d="M143.786,24.604c3.399,2.411,4.882,6.305,4.882,10.137c0,3.646-1.668,6.983-4.263,9.146
			c-3.709,3.092-8.592,4.079-13.227,4.079c-4.451,0-8.653-0.864-12.855-2.224v-7.602h0.989c3.4,1.174,7.541,2.285,11.929,2.285
			c3.337,0,9.395-0.928,9.332-5.562c-0.062-2.967-2.904-4.45-5.563-5.252c-3.275-0.99-6.674-1.917-9.826-3.4
			c-4.45-2.225-7.046-6.304-7.046-11.001c0-3.399,1.792-6.49,4.203-8.591c2.782-2.286,6.427-3.214,10.013-3.275
			c4.697,0,8.9,0.804,13.473,2.101v7.541h-1.112c-3.029-1.174-8.159-2.101-11.868-2.101c-2.595,0-6.612,0.927-6.612,4.141
			s5.067,4.511,7.911,5.562C137.42,21.639,140.819,22.627,143.786,24.604z"/>
		<path fill="#FFFFFF" d="M176.173,23.368c-2.04-1.606-5.686-2.163-8.468-2.163c-2.966,0-5.006,1.051-6.242,2.719
			c-1.36,1.854-1.855,4.45-1.855,7.231c0,2.163,0.433,4.203,1.36,5.872c1.298,2.348,3.461,3.955,6.613,3.955
			c2.905,0,6.366-0.557,8.714-1.854h0.927v6.675c-3.276,1.606-6.49,2.162-9.766,2.162c-5.314,0-10.073-2.657-12.917-6.675
			c-1.978-2.78-3.028-6.242-3.028-10.196c0-4.76,1.483-8.963,4.141-11.93c2.719-3.09,6.675-4.944,11.557-4.944
			c3.585,0,6.614,0.804,9.951,2.163v6.983H176.173z"/>
		<path fill="#FFFFFF" d="M211.033,11.75h-7.912V6.384h7.912V11.75z M210.97,47.288h-7.849V14.901h7.849V47.288z"/>
		<path fill="#FFFFFF" d="M232.417,14.283c5.687,0.125,10.446,2.102,13.35,6.923c1.794,3.152,2.411,6.86,2.411,10.446
			c-0.124,4.142-0.804,8.034-3.399,11.371c-2.781,3.214-6.799,5.007-11.311,5.007c-2.163,0-4.202-0.31-6.241-1.607v8.616h-7.851
			V22.132c0-4.326,3.462-7.85,7.788-7.85H232.417z M227.227,40.242c1.853,0.432,3.583,0.804,5.5,0.804
			c2.41-0.125,4.573-0.804,5.933-2.968c1.112-1.854,1.484-4.264,1.422-6.427c0-2.658-0.247-6.366-2.226-8.406
			c-1.605-1.606-4.079-1.978-6.18-1.978h-2.597c-0.988,0-1.853,0.804-1.853,1.792V40.242z"/>
		<path fill="#FFFFFF" d="M260.788,36.967c0,2.78,1.916,4.017,4.265,4.017c1.668,0.062,3.213-0.68,4.696-1.298h1.235v6.859
			c-2.349,0.805-4.325,1.422-6.858,1.422c-7.665,0-11.188-4.326-11.188-11.99V21.701h-3.523v-6.799h3.523V7.3h7.85v7.602h8.281
			v6.799h-8.281V36.967z"/>
		<path fill="#FFFFFF" d="M98.234,14.115c-3.399,0-6.489,0.742-9.58,1.608v7.168h0.865c2.41-1.174,5.81-1.916,8.59-1.916
			c2.164,0,7.108,1.112,7.355,4.265l-10.63,1.545c-5.006,0.68-9.456,4.573-9.333,10.506c0.185,6.282,4.909,10.595,11.3,10.629
			c0.024,0,0.047,0.003,0.072,0.003c0.005,0,0.009-0.002,0.013-0.002c0.009,0,0.016,0.002,0.024,0.002
			c3.109,0,6.054-0.788,8.678-2.195c3.014-1.613,5.059-2.816,7.54-5.459V25.055C112.882,16.897,105.651,14.115,98.234,14.115z
			 M93.413,36.859c0-2.474,1.608-3.647,3.771-4.079c2.719-0.557,5.439-0.804,8.097-1.298v7.292c-2.04,1.237-4.513,2.226-6.984,2.226
			C95.7,41,93.413,39.887,93.413,36.859z"/>
		<path fill="#FFFFFF" d="M36.064,14.115c-3.399,0-6.489,0.742-9.58,1.608v7.168h0.866c2.41-1.174,5.81-1.916,8.59-1.916
			c2.163,0,7.108,1.112,7.354,4.265l-10.63,1.545c-5.006,0.68-9.456,4.573-9.333,10.506c0.185,6.282,4.909,10.595,11.3,10.629
			c0.024,0,0.047,0.003,0.072,0.003c0.004,0,0.009-0.002,0.013-0.002c0.009,0,0.016,0.002,0.024,0.002
			c3.11,0,6.054-0.788,8.678-2.195c3.014-1.613,5.059-2.816,7.54-5.459V25.055C50.712,16.897,43.481,14.115,36.064,14.115z
			 M31.244,36.859c0-2.474,1.607-3.647,3.77-4.079c2.719-0.557,5.439-0.804,8.097-1.298v7.292C41.071,40.012,38.598,41,36.126,41
			C33.531,41,31.244,39.887,31.244,36.859z"/>
	</g>
</g>
</svg>
