<svg width="129px" height="100px" viewBox="0 0 129 100" version="1.1" xmlns="http://www.w3.org/2000/svg" xmlns:xlink="http://www.w3.org/1999/xlink">
  <g id="Steal.com-update" transform="translate(-138.000000, -779.000000)">
    <g id="Group-2" transform="translate(138.000000, 683.000000)">
      <g id="logo-donejs" transform="translate(0.000000, 96.000000)">
        <path d="M26.8082702,24.5512969 L116.56135,24.5512969 L122.61212,24.5512969 L128.999043,0.802168022 L128.999043,0.802168022 L27.1444241,0.802168022 L27.1444241,0.802168022 L20.7575008,24.5512969 L26.8082702,24.5512969 L26.8082702,24.5512969 Z M38.3215399,12.5931088 C37.7332706,14.6837011 35.5482705,16.4397987 33.4473089,16.4397987 C31.3463473,16.4397987 30.0857703,14.6837011 30.5900011,12.5931088 C31.1782704,10.5025165 33.3632704,8.74641889 35.4642321,8.74641889 C37.6492321,8.74641889 38.9098091,10.4188928 38.3215399,12.5931088 L38.3215399,12.5931088 Z M48.658271,12.5931088 C48.0700018,14.6837011 45.8850017,16.4397987 43.7840401,16.4397987 C41.6830784,16.4397987 40.4225015,14.6837011 40.9267323,12.5931088 C41.5150015,10.5025165 43.7000016,8.74641889 45.8009632,8.74641889 C47.9859633,8.74641889 49.2465403,10.4188928 48.658271,12.5931088 L48.658271,12.5931088 Z M110.258466,16.5234224 L58.4907714,16.5234224 L60.591733,8.57917151 L112.275389,8.57917151 L110.258466,16.5234224 L110.258466,16.5234224 Z" id="Shape" fill="#3982A5"></path>
        <polygon id="Shape" fill="#FFFFFF" points="110.258466 16.5234224 58.4907714 16.5234224 60.6757714 8.57917151 112.359427 8.57917151"></polygon>
        <polygon id="Shape" fill="#0C0110" points="58.238656 39.3526907 58.1546175 39.3526907 53.6165404 56.3283004 53.6165404 56.3283004 72.6932719 56.3283004 77.3153874 39.3526907"></polygon>
        <polygon id="Shape" fill="#0C0110" points="116.645389 24.5512969 116.645389 24.5512969 112.611543 39.3526907 96.4761574 39.3526907 96.3921189 39.3526907 91.8540418 56.3283004 91.9380803 56.3283004 108.073465 56.3283004 103.703465 72.3840496 87.4840417 72.3840496 91.8540418 56.3283004 72.7773103 56.3283004 72.6932719 56.3283004 68.4073102 72.3840496 49.2465403 72.3840496 53.6165404 56.3283004 34.539809 56.3283004 34.4557705 56.3283004 30.0857703 72.3840496 13.9503851 72.3840496 18.3203853 56.3283004 34.4557705 56.3283004 38.9938476 39.3526907 22.8584624 39.3526907 26.8082702 24.5512969 26.8082702 24.5512969 20.7575008 24.5512969 16.0513467 42.1122726 16.0513467 41.9450252 0.504230788 99.4781262 2.35307701 99.6453736 17.0598083 78.2377081 108.157504 78.2377081 122.61212 24.5512969"></polygon>
        <g id="Group" transform="translate(38.657694, 24.049555)" fill="#0C0110">
          <polygon id="Shape" points="4.28596169 0.50174216 0.336153858 15.3031359 0.420192323 15.3031359 19.4969238 15.3031359 23.4467316 0.50174216 23.5307701 0.50174216"></polygon>
          <polygon id="Shape" points="42.6075016 0.50174216 38.6576937 15.3031359 38.7417322 15.3031359 57.7344252 15.3031359 61.7682715 0.50174216"></polygon>
        </g>
        <path d="M38.3215399,12.5931088 C37.7332706,14.6837011 35.5482705,16.4397987 33.4473089,16.4397987 C31.3463473,16.4397987 30.0857703,14.6837011 30.5900011,12.5931088 C31.1782704,10.5025165 33.3632704,8.74641889 35.4642321,8.74641889 C37.6492321,8.74641889 38.9098091,10.4188928 38.3215399,12.5931088 L38.3215399,12.5931088 Z" id="Shape" fill="#0C0110"></path>
        <path d="M48.658271,12.5931088 C48.0700018,14.6837011 45.8850017,16.4397987 43.7840401,16.4397987 C41.6830784,16.4397987 40.4225015,14.6837011 40.9267323,12.5931088 C41.5150015,10.5025165 43.7000016,8.74641889 45.8009632,8.74641889 C47.9859633,8.74641889 49.2465403,10.4188928 48.658271,12.5931088 L48.658271,12.5931088 Z" id="Shape" fill="#0C0110"></path>
      </g>
    </g>
  </g>
</svg>
