<svg width="159px" height="64px" viewBox="0 0 159 64" version="1.1" xmlns="http://www.w3.org/2000/svg" xmlns:xlink="http://www.w3.org/1999/xlink">
  <g id="Steal.com-update" transform="translate(-294.000000, -801.000000)" fill="#3E7ABE">
    <g id="Group-2" transform="translate(138.000000, 683.000000)">
      <g id="logo-canjs" transform="translate(156.000000, 118.000000)">
        <path d="M115.481918,62.9479452 L112.476164,56.8986301 L112.040548,56.0219178 L112.911781,55.539726 C113.826575,55.0136986 114.654247,54.5315068 115.394795,54.0054795 C116.091781,53.5232877 116.658082,53.0410959 117.13726,52.6027397 C117.572877,52.1643836 117.964932,51.7260274 118.269863,51.2 C118.574795,50.7178082 118.836164,50.1917808 118.966849,49.6657534 L118.966849,49.6657534 L118.966849,49.6657534 C119.010411,49.5342466 119.053973,49.3589041 119.097534,49.1835616 C119.141096,48.9643836 119.184658,48.7890411 119.228219,48.6575342 C119.402466,47.6931507 119.489589,46.5534247 119.489589,45.2383562 L119.489589,45.2383562 L119.489589,17.6657534 L119.489589,16.6575342 L120.491507,16.6575342 L128.942466,16.6575342 L129.944384,16.6575342 L129.944384,17.6657534 L129.944384,45.1068493 L129.944384,45.1068493 L129.944384,45.8520548 L129.944384,46.5972603 C129.900822,47.8684932 129.770137,49.139726 129.59589,50.3671233 L129.59589,50.3671233 C129.552329,50.630137 129.508767,50.8931507 129.465205,51.1123288 C129.421644,51.3315068 129.378082,51.5945205 129.290959,51.8575342 C128.986027,53.1287671 128.506849,54.3123288 127.896986,55.4520548 L127.896986,55.4520548 C127.417808,56.2849315 126.851507,57.0739726 126.198082,57.8191781 C125.544658,58.5643836 124.760548,59.2657534 123.845753,59.9232877 L123.845753,59.9232877 L123.845753,59.9232877 L123.845753,59.9232877 C123.584384,60.1424658 123.323014,60.3178082 123.061644,60.4931507 C122.800274,60.6684932 122.495342,60.8438356 122.190411,61.0191781 C120.665753,61.8958904 118.879726,62.6849315 116.745205,63.3863014 L115.917534,63.6493151 L115.481918,62.9479452 L115.481918,62.9479452 L115.481918,62.9479452 Z M143.62274,54.2246575 C142.620822,54.2246575 141.706027,54.1808219 140.878356,54.1369863 C140.094247,54.0931507 139.266575,54.0054795 138.526027,53.8739726 L138.526027,53.8739726 C137.785479,53.7424658 137.088493,53.6109589 136.435068,53.4794521 C135.738082,53.3041096 135.128219,53.1726027 134.561918,52.9534247 C133.995616,52.7780822 133.472877,52.5589041 132.950137,52.2958904 C132.427397,52.0767123 131.948219,51.8136986 131.512603,51.5945205 L130.728493,51.1561644 L131.033425,50.3232877 L133.385753,44.2739726 L133.734247,43.3534247 L134.649041,43.7041096 L134.649041,43.7041096 L134.649041,43.7041096 C134.779726,43.7479452 134.910411,43.7917808 135.041096,43.8356164 C135.084658,43.8356164 135.215342,43.8794521 135.433151,43.9671233 C136.130137,44.1863014 136.827123,44.4054795 137.393425,44.5369863 L137.393425,44.5369863 C137.829041,44.6684932 138.264658,44.7561644 138.743836,44.8438356 C139.223014,44.9315068 139.702192,44.9753425 140.137808,45.0191781 L140.18137,45.0191781 C140.660548,45.0630137 141.139726,45.1068493 141.706027,45.1506849 C142.272329,45.1945205 142.83863,45.1945205 143.448493,45.1945205 L143.448493,45.1945205 C144.406849,45.1945205 145.278082,45.1068493 145.975068,44.9753425 C146.149315,44.9315068 146.236438,44.9315068 146.28,44.8876712 C146.80274,44.7561644 147.194795,44.5808219 147.543288,44.4054795 L147.543288,44.4054795 L147.543288,44.4054795 L147.543288,44.4054795 L147.543288,44.4054795 L147.543288,44.4054795 C147.630411,44.3616438 147.717534,44.2739726 147.804658,44.230137 L147.804658,44.230137 C147.891781,44.1863014 147.935342,44.0986301 148.022466,44.0109589 C148.327397,43.7041096 148.501644,43.2657534 148.501644,42.7835616 C148.501644,42.4767123 148.414521,42.2136986 148.283836,41.9506849 C148.153151,41.6876712 147.935342,41.4246575 147.630411,41.2054795 L147.630411,41.2054795 C147.281918,40.9424658 146.889863,40.6794521 146.410685,40.4164384 C145.931507,40.1534247 145.408767,39.890411 144.842466,39.6712329 L144.842466,39.6712329 C144.189041,39.4082192 143.535616,39.1452055 142.882192,38.8821918 C142.359452,38.6630137 141.662466,38.4 140.834795,38.0054795 C140.094247,37.6986301 139.39726,37.3479452 138.700274,36.9972603 C138.003288,36.6027397 137.349863,36.2082192 136.696438,35.769863 L136.696438,35.769863 C135.999452,35.3315068 135.389589,34.7616438 134.823288,34.1917808 C134.256986,33.5780822 133.777808,32.9205479 133.342192,32.2191781 L133.342192,32.2191781 C133.211507,32 133.080822,31.7808219 132.993699,31.5616438 C132.906575,31.3424658 132.77589,31.1232877 132.688767,30.860274 C132.209589,29.6767123 131.991781,28.2739726 131.948219,26.7835616 L131.948219,26.739726 C131.948219,25.8191781 132.078904,24.9863014 132.253151,24.1534247 C132.470959,23.3205479 132.77589,22.5753425 133.167945,21.8739726 L133.167945,21.8739726 C133.56,21.2164384 134.039178,20.6027397 134.561918,20.0328767 C135.084658,19.4630137 135.694521,18.9808219 136.304384,18.5424658 L136.304384,18.5424658 C136.957808,18.1041096 137.654795,17.7534247 138.351781,17.4465753 C139.048767,17.139726 139.832877,16.8767123 140.616986,16.7013699 L140.616986,16.7013699 C141.401096,16.4821918 142.185205,16.3506849 142.969315,16.2630137 C143.753425,16.1753425 144.581096,16.1315068 145.365205,16.1315068 L145.365205,16.1315068 C146.323562,16.1315068 147.194795,16.1753425 147.978904,16.2191781 C148.153151,16.2191781 148.283836,16.2630137 148.370959,16.2630137 C148.980822,16.3068493 149.590685,16.3945205 150.200548,16.5260274 L150.200548,16.5260274 L150.200548,16.5260274 C150.418356,16.569863 150.592603,16.6136986 150.766849,16.6136986 C150.941096,16.6575342 151.115342,16.7013699 151.289589,16.7452055 C152.160822,16.9205479 152.988493,17.1835616 153.772603,17.4465753 L153.772603,17.4465753 C154.295342,17.6219178 154.818082,17.8410959 155.253699,18.0164384 C155.732877,18.1917808 156.212055,18.4109589 156.647671,18.630137 L157.562466,19.0246575 L157.170411,19.9452055 L154.774521,25.7753425 L154.426027,26.6082192 L153.554795,26.3452055 L153.554795,26.3452055 L153.554795,26.3452055 C152.727123,26.0821918 151.899452,25.8630137 151.115342,25.6438356 L151.071781,25.6438356 C150.636164,25.5123288 150.24411,25.4246575 149.895616,25.3369863 C149.46,25.2493151 149.067945,25.1616438 148.632329,25.1178082 L148.632329,25.1178082 C148.240274,25.0739726 147.804658,25.030137 147.238356,24.9863014 C146.715616,24.9424658 146.192877,24.9424658 145.670137,24.9424658 C144.886027,24.9424658 144.232603,25.030137 143.709863,25.1616438 C143.274247,25.2493151 142.925753,25.4246575 142.707945,25.5561644 L142.707945,25.5561644 L142.707945,25.5561644 C142.620822,25.6 142.57726,25.6876712 142.533699,25.7315068 C142.490137,25.7753425 142.446575,25.8191781 142.403014,25.9068493 C142.228767,26.169863 142.141644,26.4328767 142.141644,26.739726 L142.141644,26.739726 L142.141644,26.9150685 C142.141644,26.9589041 142.185205,27.0027397 142.185205,27.090411 C142.272329,27.3972603 142.533699,27.7041096 142.969315,27.9671233 L143.012877,28.0109589 C143.36137,28.2739726 143.796986,28.5369863 144.276164,28.8 C144.755342,29.0630137 145.278082,29.3260274 145.931507,29.5890411 L145.931507,29.5890411 C146.410685,29.8082192 146.367123,29.7643836 146.454247,29.8082192 C146.933425,30.0273973 146.889863,29.9835616 147.020548,30.0273973 C147.891781,30.3780822 148.850137,30.8164384 149.98274,31.3424658 C150.723288,31.6931507 151.463836,32.0438356 152.160822,32.4383562 C152.857808,32.8328767 153.554795,33.2712329 154.208219,33.7534247 L154.208219,33.7534247 C154.861644,34.2356164 155.515068,34.8054795 156.08137,35.3753425 C156.647671,35.9890411 157.170411,36.6465753 157.562466,37.3479452 L157.562466,37.3479452 C158.041644,38.0931507 158.390137,38.8821918 158.607945,39.7589041 C158.825753,40.6356164 158.956438,41.5561644 158.956438,42.5643836 L158.956438,42.6082192 L158.956438,42.6082192 C158.956438,42.9150685 158.956438,43.2219178 158.912877,43.4410959 C158.912877,43.660274 158.869315,43.9232877 158.825753,44.2739726 C158.651507,45.6767123 158.21589,46.9041096 157.562466,48 C157.126849,48.7452055 156.60411,49.4465753 155.994247,50.060274 C155.384384,50.6739726 154.730959,51.2 153.946849,51.6821918 L153.946849,51.6821918 C153.206301,52.1205479 152.422192,52.5150685 151.594521,52.8657534 C150.766849,53.1726027 149.939178,53.4356164 149.024384,53.6547945 C148.109589,53.8739726 147.238356,54.0054795 146.323562,54.1369863 C145.49589,54.1808219 144.581096,54.2246575 143.62274,54.2246575 L143.62274,54.2246575 L143.62274,54.2246575 Z" id="Shape"></path>
        <path d="M33.8473973,50.3671233 C27.6616438,52.0767123 20.6917808,53.2164384 14.2446575,51.9452055 C11.7616438,51.4630137 9.49643836,50.4109589 7.36191781,48.9205479 C5.22739726,47.2547945 3.48493151,44.8876712 2.13452055,41.7753425 C0.740547945,38.6191781 0.0435616438,34.3232877 0.0435616438,28.9753425 C0.0435616438,23.6273973 0.871232877,19.3753425 2.43945205,16.0876712 C3.92054795,12.8438356 5.79369863,10.3890411 8.1460274,8.76712329 C10.4112329,7.14520548 12.8071233,6.04931507 15.290137,5.52328767 C17.729589,4.99726027 19.9947945,4.77808219 22.0421918,4.77808219 C25.0479452,4.82191781 31.6257534,5.6109589 34.7621918,7.71506849 L34.7621918,18.1479452 C31.5386301,16.4821918 27.0517808,15.6493151 23.4361644,15.5616438 C22.3471233,15.5616438 21.2580822,15.6931507 20.2561644,15.9123288 C19.2106849,16.2191781 18.2958904,16.8328767 17.4246575,17.7534247 C16.6405479,18.6739726 15.9871233,20.0767123 15.5079452,21.830137 C14.8980822,23.6712329 14.6367123,25.9945205 14.6367123,28.9753425 C14.6367123,31.6054795 14.8545205,33.709589 15.3336986,35.3315068 C15.6821918,36.9972603 16.1178082,38.3561644 16.9019178,39.2328767 C19.689863,42.6082192 25.9191781,41.4684932 30.1882192,40.3287671 C30.5367123,43.7917808 31.4079452,47.5178082 33.8473973,50.3671233 L33.8473973,50.3671233 L33.8473973,50.3671233 Z" id="Shape"></path>
        <path d="M57.6320548,29.939726 L55.0619178,30.0273973 C52.2739726,30.0273973 50.2265753,30.509589 49.0068493,31.5178082 C47.7435616,32.5260274 47.1336986,34.3232877 47.1772603,36.9972603 C47.1772603,39.2328767 47.5693151,40.6794521 48.3969863,41.5123288 C49.1810959,42.3452055 50.270137,42.6958904 51.489863,42.6520548 C53.0145205,42.6082192 54.1471233,42.2575342 55.279726,41.6438356 L55.279726,46.1589041 C55.279726,47.6493151 55.5410959,48.7890411 56.020274,49.6657534 C54.3649315,50.4109589 53.2758904,51.0246575 51.4463014,51.5068493 C49.2246575,52.1643836 47.0030137,52.6027397 45.5219178,52.6465753 C35.1978082,52.9534247 32.5841096,45.1506849 32.5841096,37.7863014 C32.5841096,34.630137 33.1939726,32.0438356 34.4136986,30.0273973 C35.5463014,28.0109589 36.8967123,26.5643836 38.6391781,25.5123288 C40.4687671,24.4164384 42.2983562,23.6712329 44.2586301,23.2328767 C46.2189041,22.9260274 48.0049315,22.7945205 49.7038356,22.7945205 L57.6320548,22.7945205 L57.6320548,20.0767123 C57.6320548,18.2794521 57.1964384,17.0958904 56.2380822,16.5260274 C55.3232877,16 53.8421918,15.7369863 51.7512329,15.7369863 C49.2246575,15.7808219 39.510411,16.7890411 37.2452055,18.2356164 L37.2452055,7.49589041 C42.2983562,5.52328767 51.0542466,4.82191781 54.06,4.77808219 C59.2438356,4.73424658 63.5128767,5.65479452 66.9106849,7.58356164 C68.609589,8.72328767 69.8728767,10.3013699 70.8747945,12.2739726 C71.7460274,14.3780822 72.1816438,17.0082192 72.1816438,20.2082192 C72.1816438,30.7287671 72.2252055,41.2493151 72.2252055,51.769863 L72.1816438,51.769863 L72.1816438,51.9452055 L67.999726,51.9452055 C63.1643836,51.9452055 57.5884932,52.4712329 57.5884932,45.6767123 L57.5884932,34.1917808 L57.5884932,29.939726 L57.6320548,29.939726 L57.6320548,29.939726 Z" id="Shape"></path>
        <path d="M74.7082192,5.65479452 L87.1232877,5.65479452 L89.04,10.3452055 C89.0835616,10.2136986 90.5210959,9.24931507 93.3526027,7.53972603 C94.7030137,6.75068493 96.3583562,6.18082192 98.1879452,5.6109589 C99.930411,5.08493151 101.76,4.77808219 103.763836,4.73424658 C107.640822,4.69041096 110.820822,5.6109589 113.216712,7.62739726 C115.656164,9.68767123 116.919452,13.3260274 116.919452,18.4986301 L116.919452,45.4575342 C116.919452,52.2520548 111.3,51.7260274 106.508219,51.7260274 L102.326301,51.7260274 L102.326301,20.2958904 C102.326301,18.7616438 102.108493,17.709589 101.542192,17.1835616 C101.019452,16.6575342 99.8868493,16.4383562 98.3621918,16.4383562 C96.1405479,16.4821918 94.180274,16.9205479 92.3071233,17.7972603 C90.3468493,18.7178082 89.3449315,19.2438356 89.3013699,19.2876712 L89.3013699,51.8136986 L74.7953425,51.8136986 C74.7953425,36.2958904 74.7082192,21.0849315 74.7082192,5.65479452 L74.7082192,5.65479452 L74.7082192,5.65479452 Z" id="Shape"></path>
        <path d="M124.412055,0.394520548 C128.158356,0.394520548 131.207671,3.4630137 131.207671,7.27671233 C131.207671,11.0465753 128.158356,14.1589041 124.412055,14.1589041 C120.665753,14.1589041 117.616438,11.090411 117.616438,7.27671233 C117.572877,3.50684932 120.665753,0.394520548 124.412055,0.394520548 L124.412055,0.394520548 L124.412055,0.394520548 Z" id="Shape"></path>
      </g>
    </g>
  </g>
</svg>
