<?xml version="1.0" encoding="UTF-8" standalone="no"?>
<svg width="84px" height="118px" viewBox="0 0 84 118" version="1.1" xmlns="http://www.w3.org/2000/svg" xmlns:xlink="http://www.w3.org/1999/xlink">
    <!-- Generator: Sketch 3.8.3 (29802) - http://www.bohemiancoding.com/sketch -->
    <title>logo-css3</title>
    <desc>Created with Sketch.</desc>
    <defs></defs>
    <g id="Page-1" stroke="none" stroke-width="1" fill="none" fill-rule="evenodd">
        <g id="Steal.com-update" transform="translate(-572.000000, -1092.000000)">
            <g id="logo-css3" transform="translate(572.000000, 1092.000000)">
                <g id="Group">
                    <polygon id="Shape" fill="#264DE4" points="41.9487692 117.701866 7.764 108.248245 0.146076923 23.1311753 83.853923 23.1311753 76.227923 108.234912 41.9487692 117.701866"></polygon>
                    <polygon id="Shape" fill="#2965F1" points="69.6992307 102.815798 76.2161538 30.0907579 42 30.0907579 42 110.46573 69.6992307 102.815798"></polygon>
                    <polygon id="Shape" fill="#EBEBEB" points="17.61 61.6594559 18.5492308 72.0985998 42 72.0985998 42 61.6594559 17.61 61.6594559"></polygon>
                    <polygon id="Shape" fill="#EBEBEB" points="15.7227692 40.5301317 16.6753846 50.9695058 42 50.9695058 42 40.5301317 15.7227692 40.5301317"></polygon>
                    <polygon id="Shape" fill="#EBEBEB" points="42 88.7713451 41.9540769 88.7835292 30.2831539 85.6441996 29.5370769 77.3184017 19.0174615 77.3184017 20.4856154 93.7095359 41.9517692 99.645894 42 99.6325606 42 88.7713451"></polygon>
                    <polygon id="Shape" fill="#000000" points="19.8461539 0 32.5384615 0 32.5384615 5.28738852 25.1538462 5.28738852 25.1538462 10.574777 32.5384615 10.574777 32.5384615 15.8621655 19.8461539 15.8621655 19.8461539 0"></polygon>
                    <polygon id="Shape" fill="#000000" points="35.0769231 0 47.7692309 0 47.7692309 4.59772915 40.3846154 4.59772915 40.3846154 5.51727498 47.7692309 5.51727498 47.7692309 16.092052 35.0769231 16.092052 35.0769231 11.2644364 42.4615383 11.2644364 42.4615383 10.3448906 35.0769231 10.3448906 35.0769231 0"></polygon>
                    <polygon id="Shape" fill="#000000" points="50.3076922 0 63 0 63 4.59772915 55.6153845 4.59772915 55.6153845 5.51727498 63 5.51727498 63 16.092052 50.3076922 16.092052 50.3076922 11.2644364 57.6923078 11.2644364 57.6923078 10.3448906 50.3076922 10.3448906 50.3076922 0"></polygon>
                    <polygon id="Shape" fill="#FFFFFF" points="66.3228461 61.6594559 68.2146924 40.5301317 41.9637691 40.5301317 41.9637691 50.9695058 56.7302308 50.9695058 55.7766923 61.6594559 41.9637691 61.6594559 41.9637691 72.0985998 54.8679229 72.0985998 53.6515386 85.6375328 41.9637691 88.7800807 41.9637691 99.6408366 63.4470001 93.7095359 63.6046153 91.9458471 66.0671537 64.4626913 66.3228461 61.6594559"></polygon>
                </g>
            </g>
        </g>
    </g>
</svg>