<svg width="121px" height="106px" viewBox="0 0 121 106" version="1.1" xmlns="http://www.w3.org/2000/svg" xmlns:xlink="http://www.w3.org/1999/xlink">
  <g id="Page-1" stroke="none" stroke-width="1" fill="none" fill-rule="evenodd">
    <g id="Steal.com-update" transform="translate(-488.000000, -776.000000)">
      <g id="Group-2" transform="translate(138.000000, 683.000000)">
        <g id="logo-react" transform="translate(353.000000, 96.000000)">
          <ellipse id="Oval" fill="#00D8FF" cx="57.5819531" cy="49.8171908" rx="10.7176365" ry="10.5171908"></ellipse>
          <path d="M57.5819531,28.433543 C71.9718334,28.433543 85.3396638,30.4597484 95.4189464,33.8647799 C107.563052,37.9672956 115.029741,44.1861635 115.029741,49.8171908 C115.029741,55.6853249 107.116332,62.2916143 94.0753697,66.5316562 C84.2157081,69.7373166 71.2418283,71.4104822 57.5819531,71.4104822 C43.5770507,71.4104822 30.3151852,69.8398323 20.3467814,66.4962264 C7.73224265,62.2651992 0.134165402,55.5731656 0.134165402,49.8171908 C0.134165402,44.2318658 7.26330466,38.0612159 19.2367122,33.9647799 C29.3535953,30.5037736 43.0514983,28.433543 57.5819531,28.433543 L57.5819531,28.433543 Z" id="Shape" stroke="#00D8FF" stroke-width="5.07038469"></path>
          <path d="M38.6122899,39.1870021 C45.8010345,26.954717 54.2679822,16.6033543 62.3091471,9.73626834 C71.9976837,1.46247379 81.2177096,-1.77798742 86.1886659,1.03501048 C91.3689886,3.96645702 93.2477315,13.9939203 90.4757632,27.1976939 C88.3799629,37.1805031 83.3756789,49.0450734 76.5516163,60.6570231 C69.555147,72.5622642 61.5434643,83.0509434 53.6116827,89.8545073 C43.5747006,98.4641509 33.8714229,101.579665 28.7900152,98.7041929 C23.8594367,95.9138365 21.9736437,86.7710692 24.3390566,74.5463312 C26.3376511,64.2171908 31.353258,51.5389937 38.6122899,39.1870021 L38.6122899,39.1870021 Z" id="Shape" stroke="#00D8FF" stroke-width="5.07038469"></path>
          <path d="M38.6304492,60.6880503 C31.4209816,48.4675052 26.5104852,36.0995807 24.4636083,25.8337526 C21.9973576,13.4649895 23.7410806,4.00796646 28.7073368,1.18679245 C33.8825322,-1.75324948 43.6738292,1.6572327 53.9466689,10.6081761 C61.7137348,17.3754717 69.6893124,27.5551363 76.5332434,39.1559748 C83.5500084,51.0496855 88.809164,63.0991614 90.8547591,73.2402516 C93.443425,86.0731656 91.3480519,95.8784067 86.2715579,98.7622642 C81.3456794,101.560587 72.3318154,98.5979036 62.7201889,90.4815514 C54.599123,83.6238994 45.9106314,73.0280922 38.6304492,60.6880503 L38.6304492,60.6880503 Z" id="Shape" stroke="#00D8FF" stroke-width="5.07038469"></path>
        </g>
      </g>
    </g>
  </g>
</svg>
