<svg width="95px" height="100px" viewBox="0 0 95 100" version="1.1" xmlns="http://www.w3.org/2000/svg" xmlns:xlink="http://www.w3.org/1999/xlink">
  <g id="Steal.com-update" transform="translate(-655.000000, -779.000000)">
    <g id="Group-2" transform="translate(138.000000, 683.000000)">
      <g id="logo-angular" transform="translate(517.000000, 96.000000)">
        <g id="Group">
          <polygon id="Shape" fill="#E23237" points="0.0367488111 16.7360952 46.4504971 0.256351568 94.1137052 16.443122 86.3964548 77.6379033 46.4504971 99.6841382 7.12926934 77.9308765"></polygon>
          <polygon id="Shape" fill="#B52E31" points="94.1137052 16.443122 46.4504971 0.256351568 46.4504971 99.6841382 86.3964548 77.674525 94.1137052 16.443122"></polygon>
          <path d="M46.5239948,11.8654154 L46.5239948,11.8654154 L17.6026805,75.989929 L28.406831,75.806821 L34.2131431,61.341268 L46.5607437,61.341268 L46.5974925,61.341268 L60.1578037,61.341268 L66.5153481,75.989929 L76.8417638,76.1730371 L46.5239948,11.8654154 L46.5239948,11.8654154 L46.5239948,11.8654154 Z M46.5974925,32.4101625 L56.3726762,52.7718015 L47.0017295,52.7718015 L46.5239948,52.7718015 L37.9982705,52.7718015 L46.5974925,32.4101625 L46.5974925,32.4101625 L46.5974925,32.4101625 Z" id="Shape" fill="#FFFFFF"></path>
        </g>
      </g>
    </g>
  </g>
</svg>
