<?xml version="1.0" encoding="UTF-8" standalone="no"?>
<svg width="108px" height="80px" viewBox="0 0 108 80" version="1.1" xmlns="http://www.w3.org/2000/svg" xmlns:xlink="http://www.w3.org/1999/xlink">
    <!-- Generator: Sketch 3.8.3 (29802) - http://www.bohemiancoding.com/sketch -->
    <title>logo-sass</title>
    <desc>Created with Sketch.</desc>
    <defs></defs>
    <g id="Page-1" stroke="none" stroke-width="1" fill="none" fill-rule="evenodd">
        <g id="Steal.com-update" transform="translate(-797.000000, -945.000000)" fill="#CD6799">
            <g id="Group-2" transform="translate(138.000000, 683.000000)">
                <path d="M752.081427,307.730473 C748.33498,307.74972 745.078906,308.635083 742.352434,309.94388 C741.352074,307.999932 740.351714,306.2677 740.17518,304.997397 C739.979031,303.515377 739.743652,302.610767 739.979031,300.840042 C740.21441,299.069316 741.273615,296.547957 741.254,296.355487 C741.234385,296.163017 741.018621,295.258407 738.860982,295.23916 C736.703342,295.219913 734.839926,295.643347 734.624163,296.201511 C734.408398,296.759674 733.996485,298.029977 733.721877,299.338775 C733.349194,301.263476 729.406598,308.134661 727.150884,311.733853 C726.425133,310.328821 725.797456,309.097012 725.660152,308.115414 C725.464002,306.633394 725.228623,305.728784 725.464002,303.958059 C725.699381,302.187333 726.758586,299.665974 726.738971,299.473504 C726.719356,299.281033 726.503592,298.376424 724.345953,298.357177 C722.188314,298.33793 720.324898,298.761364 720.109134,299.319528 C719.89337,299.877691 719.657991,301.186488 719.206848,302.456791 C718.755705,303.727094 713.518526,315.198316 712.145483,318.162356 C711.439346,319.68287 710.831284,320.895432 710.399756,321.723054 L710.399756,321.723054 C710.399756,321.723054 710.380141,321.780795 710.321297,321.87703 C709.948614,322.58917 709.73285,322.97411 709.73285,322.97411 C709.73285,322.97411 709.73285,322.97411 709.73285,322.993357 C709.438626,323.513027 709.124788,323.994202 708.967868,323.994202 C708.850179,323.994202 708.634415,322.608417 709.007098,320.722209 C709.791694,316.738077 711.65511,310.540538 711.635495,310.328821 C711.635495,310.213339 711.988564,309.135506 710.419371,308.577342 C708.889409,308.019179 708.340192,308.943036 708.202887,308.943036 C708.065583,308.943036 707.967508,309.270235 707.967508,309.270235 C707.967508,309.270235 709.674005,302.302815 704.711434,302.302815 C701.612279,302.302815 697.336231,305.632549 695.217821,308.635083 C693.884007,309.347223 691.039846,310.867737 687.999536,312.503734 C686.842257,313.138885 685.645748,313.774037 684.527698,314.370694 C684.449239,314.293706 684.370779,314.197471 684.29232,314.120483 C678.290159,307.826708 667.188124,303.380648 667.658881,294.931208 C667.835415,291.851685 668.914235,283.767939 688.980282,273.95196 C705.49603,265.964449 718.638016,268.177856 720.913345,273.085845 C724.169419,280.091759 713.871594,293.102741 696.806628,294.988949 C690.29448,295.701089 686.881487,293.23747 686.018431,292.313614 C685.116146,291.351263 684.978841,291.293522 684.645388,291.485992 C684.096171,291.774697 684.449239,292.640813 684.645388,293.141235 C685.155375,294.450032 687.25417,296.759674 690.804468,297.895248 C693.942852,298.896093 701.57305,299.454257 710.811669,295.9513 C721.148724,292.024908 729.230064,281.11185 726.856661,271.969518 C724.483257,262.692456 708.791334,259.63218 693.942852,264.809628 C685.116146,267.88915 675.544073,272.739398 668.659241,279.05242 C660.479827,286.558756 659.185243,293.083494 659.714845,295.816571 C661.617491,305.517067 675.249849,311.830088 680.702792,316.507113 C680.428184,316.661089 680.17319,316.795818 679.957426,316.9113 C677.230954,318.239344 666.835055,323.570768 664.245888,329.210143 C661.303653,335.600153 664.716646,340.180942 666.97236,340.796847 C673.97488,342.702302 681.17355,339.276333 685.037686,333.61771 C688.901822,327.959087 688.431064,320.606727 686.646108,317.238499 C686.626493,317.200006 686.606878,317.161511 686.567648,317.123018 C687.273785,316.71883 687.999536,316.295396 688.705673,315.891209 C690.098331,315.082834 691.471374,314.3322 692.648269,313.716296 C691.981362,315.506268 691.490989,317.642687 691.25561,320.722209 C690.961387,324.340649 692.471734,329.03692 694.45284,330.884634 C695.33551,331.693009 696.3751,331.712255 697.042007,331.712255 C699.356566,331.712255 700.396156,329.826048 701.553435,327.593394 C702.965708,324.860318 704.240677,321.68456 704.240677,321.68456 C704.240677,321.68456 702.65187,330.268729 706.967148,330.268729 C708.536341,330.268729 710.125148,328.26704 710.831284,327.246948 L710.831284,327.266195 C710.831284,327.266195 710.870514,327.208454 710.948974,327.073725 C711.105893,326.823513 711.203967,326.669537 711.203967,326.669537 L711.203967,326.631043 C711.831645,325.55321 713.243918,323.108839 715.342712,319.047719 C718.049569,313.812531 720.658351,307.268545 720.658351,307.268545 C720.658351,307.268545 720.89373,308.866047 721.697941,311.522136 C722.168699,313.081144 723.149444,314.794128 723.93404,316.449372 C723.306363,317.315488 722.914065,317.796663 722.914065,317.796663 C722.914065,317.796663 722.914065,317.796663 722.93368,317.81591 C722.423693,318.470308 721.874475,319.182448 721.266413,319.875341 C719.128389,322.377453 716.578451,325.245258 716.225383,326.07288 C715.81347,327.054478 715.911544,327.766617 716.69614,328.344028 C717.264973,328.767462 718.284948,328.825203 719.324538,328.767462 C721.246798,328.632733 722.600227,328.170805 723.267133,327.882099 C724.306723,327.516406 725.522847,326.958243 726.660512,326.130621 C728.759306,324.610107 730.034275,322.435194 729.916586,319.567389 C729.857741,317.989133 729.328138,316.410878 728.680847,314.928858 C728.876995,314.659399 729.05353,314.389941 729.249679,314.120483 C732.564598,309.36647 735.13415,304.150529 735.13415,304.150529 C735.13415,304.150529 735.369529,305.748031 736.17374,308.404119 C736.566038,309.75141 737.370249,311.214183 738.076386,312.638463 C734.957616,315.121328 733.035355,318.00838 732.348833,319.894588 C731.113094,323.397545 732.074225,324.9758 733.898411,325.341493 C734.722237,325.514716 735.899131,325.129776 736.762187,324.764083 C737.860622,324.417637 739.155205,323.820979 740.390944,322.935616 C742.489739,321.415102 744.510074,319.29793 744.392385,316.430125 C744.33354,315.121328 743.980472,313.831778 743.490099,312.580722 C746.138111,311.502889 749.551104,310.906231 753.905613,311.406653 C763.242307,312.484487 765.086108,318.20085 764.733039,320.606727 C764.379971,323.012604 762.418481,324.321401 761.771189,324.725589 C761.123897,325.129776 760.908133,325.264505 760.966978,325.55321 C761.045438,325.976645 761.359276,325.957398 761.908493,325.88041 C762.673475,325.745681 766.812219,323.936461 766.988754,319.509647 C767.282977,313.851025 761.790804,307.672732 752.081427,307.730473 L752.081427,307.730473 L752.081427,307.730473 Z M680.0555,331.558279 C676.956346,334.868766 672.641067,336.119822 670.777651,335.061236 C668.776931,333.925662 669.561527,329.03692 673.366818,325.533963 C675.681377,323.397545 678.662842,321.415102 680.643948,320.20254 C681.09509,319.933082 681.761997,319.548142 682.566208,319.066966 C682.703512,318.989978 682.781972,318.951484 682.781972,318.951484 L682.781972,318.951484 C682.938891,318.855249 683.09581,318.759014 683.25273,318.662779 C684.645388,323.667003 683.311574,328.074569 680.0555,331.558279 L680.0555,331.558279 L680.0555,331.558279 Z M702.612639,316.507113 C701.53382,319.086213 699.278106,325.68794 697.905063,325.322246 C696.728169,325.014294 696.002417,320.01007 697.669684,315.063587 C698.513125,312.580722 700.298081,309.616681 701.337671,308.46186 C703.024552,306.614146 704.887969,305.998242 705.339111,306.748876 C705.907943,307.730473 703.279546,314.890363 702.612639,316.507113 L702.612639,316.507113 L702.612639,316.507113 Z M721.227183,325.245258 C720.776041,325.476223 720.344512,325.630198 720.148363,325.514716 C720.011059,325.437728 720.344512,325.129776 720.344512,325.129776 C720.344512,325.129776 722.678686,322.666158 723.600587,321.549831 C724.130189,320.895432 724.757866,320.125552 725.424773,319.259436 L725.424773,319.509647 C725.424773,322.454441 722.521767,324.436884 721.227183,325.245258 L721.227183,325.245258 L721.227183,325.245258 Z M735.585293,322.031006 C735.251839,321.800042 735.310684,321.030162 736.428734,318.624285 C736.860262,317.681181 737.880236,316.102925 739.625963,314.582411 C739.822112,315.198316 739.959416,315.794973 739.939801,316.353137 C739.920187,320.067811 737.21333,321.453596 735.585293,322.031006 L735.585293,322.031006 L735.585293,322.031006 Z" id="logo-sass"></path>
            </g>
        </g>
    </g>
</svg>