<?xml version="1.0" encoding="UTF-8" standalone="no"?>
<svg width="168px" height="73px" viewBox="0 0 168 73" version="1.1" xmlns="http://www.w3.org/2000/svg" xmlns:xlink="http://www.w3.org/1999/xlink">
    <!-- Generator: Sketch 3.8.3 (29802) - http://www.bohemiancoding.com/sketch -->
    <title>logo-less</title>
    <desc>Created with Sketch.</desc>
    <defs>
        <linearGradient x1="50%" y1="0%" x2="50%" y2="100%" id="linearGradient-1">
            <stop stop-color="#2E4F82" offset="0%"></stop>
            <stop stop-color="#182E4D" offset="100%"></stop>
        </linearGradient>
    </defs>
    <g id="Page-1" stroke="none" stroke-width="1" fill="none" fill-rule="evenodd">
        <g id="Steal.com-update" transform="translate(-600.000000, -949.000000)">
            <g id="Group-2" transform="translate(138.000000, 683.000000)">
                <g id="logo-less" transform="translate(462.439535, 266.692683)">
                    <path d="M156.119573,57.3747246 C156.119573,64.8515814 149.823737,70.9687157 142.128755,70.9687157 L24.5321845,70.9687157 C16.8372018,70.9687157 10.541366,64.8515814 10.541366,57.3747246 L10.541366,14.0827929 C10.541366,6.60658271 16.8372018,0.488801774 24.5321845,0.488801774 L142.128755,0.488801774 C149.823737,0.488801774 156.119573,6.60658271 156.119573,14.0827929 L156.119573,57.3747246" id="path-2" fill="#FFFFFF"></path>
                    <path d="M156.119573,57.3747246 C156.119573,64.8515814 149.823737,70.9687157 142.128755,70.9687157 L24.5321845,70.9687157 C16.8372018,70.9687157 10.541366,64.8515814 10.541366,57.3747246 L10.541366,14.0827929 C10.541366,6.60658271 16.8372018,0.488801774 24.5321845,0.488801774 L142.128755,0.488801774 C149.823737,0.488801774 156.119573,6.60658271 156.119573,14.0827929 L156.119573,57.3747246" id="path-2" fill="url(#linearGradient-1)"></path>
                    <path d="M159.261642,26.1405499 C159.261642,20.8406714 160.081115,17.7151849 160.081115,12.0079716 C160.081115,3.17462528 156.802575,0.320695344 149.563794,0.320695344 L144.236898,0.320695344 L144.236898,6.57166829 L145.875843,6.57166829 C149.563794,6.57166829 150.383266,7.79496585 150.383266,12.2795282 C150.383266,16.4918874 149.973205,20.7048931 149.973205,25.5974368 C149.973205,31.8484098 152.022211,34.2943583 156.119573,35.2454528 L156.119573,35.6534341 C152.022211,36.6045286 149.973205,39.0511237 149.973205,45.3020967 C149.973205,50.1939938 150.383266,54.135443 150.383266,58.6200053 C150.383266,63.2403459 149.427323,64.4629969 145.875843,64.4629969 L145.875843,64.5987752 L144.236898,64.5987752 L144.236898,71.1219512 L149.563794,71.1219512 C156.802575,71.1219512 160.081115,68.2680213 160.081115,59.4353215 C160.081115,53.5916834 159.261642,50.6019752 159.261642,45.3020967 C159.261642,42.4481667 161.037058,39.4584585 166.363953,39.186902 L166.363953,32.1199663 C161.037058,31.984188 159.261642,28.9944798 159.261642,26.1405499" id="Shape" stroke="#213C64" stroke-width="0.648000005" fill="#FAF9F8"></path>
                    <path d="M98.7532529,34.4301366 C94.5187704,32.7995042 90.694349,31.8484098 90.694349,29.1302581 C90.694349,27.0922909 92.3332939,25.8689933 95.3382428,25.8689933 C98.3431917,25.8689933 101.0752,27.0922909 104.080149,29.2666829 L109.543515,22.063969 C106.128505,19.4822421 101.484611,16.7640905 95.2017724,16.7640905 C85.9139848,16.7640905 79.6304963,22.063969 79.6304963,29.5382395 C79.6304963,36.1971938 85.5039236,39.5942368 90.4214082,41.4970723 C94.6552408,43.1277047 98.7532529,44.4867805 98.7532529,47.2042856 C98.7532529,49.2428993 97.1136581,50.6019752 93.4263571,50.6019752 C90.011347,50.6019752 86.5969868,49.2428993 82.9090359,46.3889694 L77.5821401,54.2712213 C81.6795023,57.6682643 87.962341,59.9784346 93.1527663,59.9784346 C104.080149,59.9784346 109.952926,54.2712213 109.952926,46.7969508 C109.952926,39.3226803 104.080149,36.1971938 98.7532529,34.4301366" id="Shape" stroke="#213C64" stroke-width="0.648000005" fill="#FAF9F8"></path>
                    <path d="M131.807041,34.4301366 C127.709679,32.7995042 123.885257,31.8484098 123.885257,29.1302581 C123.885257,27.0922909 125.524202,25.8689933 128.529151,25.8689933 C131.5341,25.8689933 134.266108,27.0922909 137.271057,29.2666829 L142.734423,22.063969 C139.319413,19.4822421 134.67552,16.7640905 128.392681,16.7640905 C119.104243,16.7640905 112.821405,22.063969 112.821405,29.5382395 C112.821405,36.1971938 118.694832,39.5942368 123.611667,41.4970723 C127.846149,43.1277047 131.943511,44.4867805 131.943511,47.2042856 C131.943511,49.2428993 130.304567,50.6019752 126.616616,50.6019752 C123.202255,50.6019752 119.787245,49.2428993 116.099944,46.3889694 L110.635928,54.2712213 C114.73394,57.6682643 121.016779,59.9784346 126.207204,59.9784346 C137.133937,59.9784346 143.007364,54.2712213 143.007364,46.7969508 C143.007364,39.3226803 137.133937,36.1971938 131.807041,34.4301366" id="Shape" stroke="#213C64" stroke-width="0.648000005" fill="#FAF9F8"></path>
                    <path d="M50.6740703,33.7505987 C51.4935428,28.3149419 54.7714325,25.7332151 58.5958539,25.7332151 C63.5133384,25.7332151 65.425874,29.1302581 65.425874,33.7505987 L50.6740703,33.7505987 L50.6740703,33.7505987 L50.6740703,33.7505987 Z M75.8060749,36.1971938 C75.9425453,25.1894554 69.9326475,16.6283122 58.4593835,16.6283122 C48.4885938,16.6283122 38.9278654,24.9178989 39.2008063,37.9636044 C39.2008063,51.4172914 48.0791826,59.2988967 59.8253875,59.2988967 C64.742872,59.2988967 70.2062382,57.532486 74.4400709,54.6785561 L70.3427087,47.4764887 C67.3377598,49.2428993 64.4692813,50.0582155 61.4643324,50.0582155 C56.0009661,50.0582155 51.7664836,47.4764887 50.6740703,41.2248692 L75.3966636,41.2248692 C75.533134,40.2737747 75.8060749,38.3715858 75.8060749,36.1971938 L75.8060749,36.1971938 L75.8060749,36.1971938 Z" id="Shape" stroke="#213C64" stroke-width="0.648000005" fill="#FAF9F8"></path>
                    <path d="M38.5178042,49.786659 C37.5618614,49.786659 36.3323278,48.9713428 36.3323278,46.3889694 L36.3323278,0.320695344 L16.9366303,0.320695344 C9.56137831,0.320695344 6.28283868,3.17462528 6.28283868,12.0079716 C6.28283868,17.8509632 7.10231112,21.1128745 7.10231112,26.1405499 C7.10231112,28.9944798 5.32689581,31.984188 0,32.2557446 L0,39.3226803 C5.32689581,39.4584585 7.10231112,42.4481667 7.10231112,45.3020967 C7.10231112,50.3304186 6.28283868,53.3194803 6.28283868,59.1631184 C6.28283868,67.9964647 9.56137831,70.8503947 16.8001599,70.8503947 L22.1270557,70.8503947 L22.1270557,64.5987752 L20.4881108,64.5987752 C17.0737506,64.5987752 15.9806874,63.2403459 15.9806874,58.7557836 C15.9806874,54.2712213 16.3907486,50.4661969 16.3907486,45.4378749 C16.3907486,39.186902 14.3417425,36.7403069 10.2437305,35.7892124 L10.2437305,35.3818776 C14.3417425,34.4301366 16.3907486,31.984188 16.3907486,25.7332151 C16.3907486,20.8406714 15.9806874,16.8998687 15.9806874,12.4153064 C15.9806874,7.93074412 16.9366303,6.70809313 20.4881108,6.70809313 L24.1760617,6.70809313 L24.1760617,45.7094315 C24.1760617,53.9990182 27.0445402,59.4353215 35.3763849,59.4353215 C37.9712727,59.4353215 40.0202787,59.0273401 41.5227532,58.4835805 L40.1567491,49.6508807 C39.3372767,49.786659 38.9278654,49.786659 38.5178042,49.786659" id="Shape" stroke="#213C64" stroke-width="0.648000005" fill="#FAF9F8"></path>
                </g>
            </g>
        </g>
    </g>
</svg>