<?xml version="1.0" encoding="UTF-8" standalone="no"?>
<svg width="164px" height="64px" viewBox="0 0 164 64" version="1.1" xmlns="http://www.w3.org/2000/svg" xmlns:xlink="http://www.w3.org/1999/xlink">
    <!-- Generator: Sketch 3.8.3 (29802) - http://www.bohemiancoding.com/sketch -->
    <title>logo-npm</title>
    <desc>Created with Sketch.</desc>
    <defs></defs>
    <g id="Page-1" stroke="none" stroke-width="1" fill="none" fill-rule="evenodd">
        <g id="Steal.com-update" transform="translate(-264.000000, -953.000000)">
            <g id="Group-2" transform="translate(138.000000, 683.000000)">
                <g id="logo-npm" transform="translate(126.190698, 270.204878)">
                    <g id="Group">
                        <polygon id="Shape" fill="#CB3837" points="0 0 0 54.0514625 45.269103 54.0514625 45.269103 63.1121122 81.4215116 63.1121122 81.4215116 54.0514625 162.843023 54.0514625 162.843023 0 0 0"></polygon>
                        <polygon id="Shape" fill="#FFFFFF" points="27.0357143 9.06064976 9.11669433 9.06064976 9.11669433 18.1212996 9.11669433 44.9908127 27.0357143 44.9908127 27.0357143 18.1212996 36.1524086 18.1212996 36.1524086 44.9908127 45.269103 44.9908127 45.269103 18.1212996 45.269103 9.06064976 27.0357143 9.06064976"></polygon>
                        <path d="M54.3857973,9.06064976 L54.3857973,43.1161955 L54.3857973,44.9908127 L54.3857973,54.0514625 L72.6191859,54.0514625 L72.6191859,44.9908127 L90.5382058,44.9908127 L90.5382058,9.06064976 L54.3857973,9.06064976 L54.3857973,9.06064976 L54.3857973,9.06064976 Z M81.4215116,35.9301629 L72.6191859,35.9301629 L72.6191859,18.1212996 L81.4215116,18.1212996 L81.4215116,35.9301629 L81.4215116,35.9301629 L81.4215116,35.9301629 Z" id="Shape" fill="#FFFFFF"></path>
                        <polygon id="Shape" fill="#FFFFFF" points="117.57392 9.06064976 99.6549005 9.06064976 99.6549005 18.1212996 99.6549005 44.9908127 117.57392 44.9908127 117.57392 18.1212996 126.690615 18.1212996 126.690615 44.9908127 135.807309 44.9908127 135.807309 18.1212996 144.924003 18.1212996 144.924003 44.9908127 154.040698 44.9908127 154.040698 18.1212996 154.040698 9.68552216 154.040698 9.06064976 117.57392 9.06064976"></polygon>
                    </g>
                </g>
            </g>
        </g>
    </g>
</svg>