<?xml version="1.0" encoding="UTF-8" standalone="no"?>
<svg width="113px" height="105px" viewBox="0 0 113 105" version="1.1" xmlns="http://www.w3.org/2000/svg" xmlns:xlink="http://www.w3.org/1999/xlink">
    <!-- Generator: Sketch 3.8.3 (29802) - http://www.bohemiancoding.com/sketch -->
    <title>logo-coffeescript</title>
    <desc>Created with Sketch.</desc>
    <defs></defs>
    <g id="Page-1" stroke="none" stroke-width="1" fill="none" fill-rule="evenodd">
        <g id="Steal.com-update" transform="translate(-457.000000, -941.000000)">
            <g id="Group-2" transform="translate(138.000000, 683.000000)">
                <g id="logo-coffeescript" transform="translate(319.284884, 258.790244)">
                    <path d="M47.161389,3.13184595 C47.2419653,3.61421787 47.0002368,4.01619451 46.1944747,4.41817112 C45.1469842,3.85540387 42.8908509,3.53382255 41.0375985,3.69461319 C39.0231937,3.85540387 37.3310937,4.49856644 37.5728222,5.8652869 C37.895127,7.23200737 39.8289556,8.03596058 43.2937318,7.7143793 C51.7542319,6.9908214 51.6736556,1.28275354 64.0823891,0.157219038 C73.751532,-0.727129503 79.1501368,2.24749741 79.8753227,5.8652869 C80.4393561,8.67912315 78.1026463,11.4125641 71.0925177,11.9753314 C64.888151,12.5380986 61.2622226,10.8497969 60.9399177,9.16149508 C60.7787652,8.27714655 61.2622226,6.9908214 64.2435417,6.66924012 C64.5658462,8.03596058 66.2579463,9.4830764 70.2867558,9.08109976 C73.1874989,8.8399138 75.6047847,7.79477462 75.2824798,6.18686819 C74.960175,4.49856644 71.8982796,3.53382255 67.0637082,3.93579919 C57.233413,4.82014772 54.8161273,10.2066343 46.4362033,10.9301922 C40.4735651,11.4929594 35.6389936,9.32228576 34.9943841,6.10647287 C34.7526555,4.90054305 34.7526555,2.08670677 41.0375985,1.52393951 C44.2606461,1.28275354 46.8390842,1.8455208 47.161389,3.13184595 L47.161389,3.13184595 L47.161389,3.13184595 Z M15.7366744,36.7370907 C12.9970839,40.1940895 11.788441,44.2138555 12.0301696,48.1532262 C12.2718982,52.0925972 14.2057268,55.30841 17.267622,57.8006648 C20.4906697,60.2929198 23.9554459,61.0164776 27.9036793,60.2929198 C29.4346269,60.0517339 31.1267269,59.2477807 32.6576746,58.7654088 C29.4346269,58.7654088 26.6950364,57.7202697 23.9554459,55.549596 C20.9741268,53.3789222 18.959722,50.3238999 18.4762649,46.6257152 C17.7510792,43.1687164 18.4762649,39.9529035 20.4100935,37.1390671 C22.5856507,34.4056262 25.4058173,32.8781151 29.1123221,32.3957432 C32.818827,32.1545572 36.0418746,33.1193011 39.2649223,35.3703702 C38.5397365,34.3252309 37.4922461,33.601673 36.5253317,32.6369291 C33.3022841,30.4662554 29.8375079,29.4211162 25.5669697,30.4662554 C21.6993126,31.2702086 18.4762649,33.2800917 15.7366744,36.7370907 L15.7366744,36.7370907 L15.7366744,36.7370907 Z M58.9255128,18.1657712 C48.5311843,18.1657712 39.2649223,17.120632 32.5770984,15.6735162 C25.4058173,13.9048191 21.6187364,11.9753314 21.6187364,9.4830764 C21.6187364,8.43793719 22.1021935,7.55358865 23.552565,6.50844947 C19.0402982,8.27714655 16.6230125,9.72426237 16.6230125,11.9753314 C16.8647411,14.4675863 20.8935507,16.9598413 29.1123221,18.8893291 C36.8476365,20.8188168 46.7585079,21.863956 58.6837843,21.863956 C70.8507892,21.863956 80.5199321,20.8188168 88.2552467,18.8893291 C96.474018,16.9598413 100.422252,14.387191 100.422252,11.9753314 C100.422252,10.2066343 98.6495752,8.51833251 95.4265275,7.23200737 C96.1517131,7.7143793 96.7157465,8.51833251 96.7157465,9.40268108 C96.7157465,11.894936 93.0092418,13.9048191 85.5156561,15.5931209 C78.5861038,17.120632 69.7227224,18.1657712 58.9255128,18.1657712 L58.9255128,18.1657712 L58.9255128,18.1657712 Z M88.5775511,25.0797688 C80.8422369,26.8484659 70.9313655,28.0543958 59.0060891,28.0543958 C46.8390842,28.0543958 36.9282127,26.7680706 29.1928983,25.0797688 C22.2633459,23.3110718 18.5568411,21.3815841 17.267622,19.371701 C18.5568411,28.0543958 21.5381602,36.2547185 25.4863935,43.4902977 C28.4677126,47.9924357 31.4490317,51.9318063 34.4303508,56.1927583 C35.7195698,58.6850134 36.6059079,61.1772685 37.1699413,63.6695235 C39.1037699,66.4029642 41.9239365,68.1716615 45.3887128,69.1364052 C49.659251,70.6639165 54.0909414,71.3070789 58.6032083,71.065893 L59.0866654,71.065893 C63.598932,71.3070789 68.3529272,70.5835211 72.7040415,69.1364052 C75.9270892,68.091266 78.6666797,66.4029642 80.6810847,63.6695235 L80.9228132,63.6695235 C81.4062703,61.1772685 82.2120322,58.6850134 83.4206752,56.1927583 C86.4019943,51.9318063 89.383313,47.9924357 92.3646321,43.4902977 C96.3128657,36.3351139 99.0524563,28.1347911 100.583404,19.371701 C98.97188,21.62277 95.2653753,23.5522577 88.5775511,25.0797688 L88.5775511,25.0797688 L88.5775511,25.0797688 Z" id="Shape" fill="#28334C"></path>
                    <path d="M90.5630173,83.1241355 C90.3199966,83.0347902 89.9444191,82.5880636 89.7234911,82.1413371 C89.3920992,81.4489109 89.3920992,81.2702202 89.6793055,80.5777941 C90.2316254,79.2599507 91.7339353,78.9025694 92.7722966,79.8406952 C94.4955345,81.3595656 92.7060182,83.9952523 90.5630173,83.1241355 L90.5630173,83.1241355 Z" id="Shape" fill="#000000" transform="translate(91.466050, 81.305328) scale(1, -1) translate(-91.466050, -81.305328) "></path>
                    <path d="M6.41156701,102.728553 C2.94299844,101.075664 0.689533505,96.2286809 0.689533505,90.4212355 C0.689533505,88.2769479 0.755811885,87.6738671 1.15348217,86.8250866 C1.79417318,85.3955615 2.85462726,84.6361264 4.64414353,84.3234178 C7.00807243,83.9213638 9.39409413,84.61379 11.33826,86.2890147 C12.2219717,87.0707862 12.2440645,87.0707862 12.3766212,86.5793869 C12.5975492,85.8869608 13.1277762,85.3062162 13.9231168,84.881826 C14.8289213,84.4127631 17.0161079,84.4350994 18.076562,84.9264986 C19.9544494,85.8422881 21.3683882,88.1652663 21.8765224,91.135998 C21.9869864,91.8730968 22.0974504,92.0071148 22.8265125,92.2081418 C23.2683684,92.3198234 23.7102243,92.431505 23.7765027,92.431505 C23.9311522,92.431505 23.842781,91.8954332 22.9811621,87.807885 L22.3625639,84.881826 L21.0149035,84.3680904 C19.5125935,83.8320185 18.2533043,82.7152021 18.2091187,81.8887579 C18.0986547,80.124188 18.3637683,79.4317618 19.4021296,78.8063446 C20.5951404,78.0692457 22.8706981,78.359618 23.9974306,79.3870891 C24.3067297,79.6774614 24.3951009,79.6774614 24.6381216,79.3647528 C25.4334622,78.3819543 27.4659992,78.0469094 28.9020307,78.6723266 C30.3380623,79.2754075 31.3764236,81.0399774 31.8403723,83.6533279 C31.9066507,83.9883728 32.0613002,84.7254717 32.1717642,85.2838799 C32.3043209,85.8422881 32.834548,88.4333022 33.3868678,91.0466527 C33.9170949,93.6823395 34.4031363,95.893636 34.4694147,95.9829813 C34.5136003,96.0946629 35.0438273,96.1393356 35.61824,96.1169993 C36.2147454,96.0946629 36.7449724,96.1840083 36.8333436,96.3180262 C37.2310139,96.8987708 36.9879932,97.0997977 35.8170751,97.1668067 L34.6240643,97.2338157 L35.0217345,98.7750224 C35.397312,100.293893 35.9938174,101.142673 36.678694,101.142673 C37.1647355,101.142673 37.7170553,100.450247 37.6065914,100.00352 C37.5182202,99.6684755 37.6286842,99.5791302 38.1368184,99.5791302 C38.7775094,99.5791302 38.821695,99.6238029 38.8437878,100.539592 C38.8658806,102.036126 37.4740346,103.376306 35.9054463,103.376306 C34.9554562,103.35397 33.585703,102.884907 33.0333831,102.371171 C32.6357128,101.991454 32.5694345,102.01379 31.9287435,102.549862 C30.0950416,104.113405 27.1787929,103.286961 25.9415964,100.874637 C25.7206685,100.427911 25.2567198,98.6856771 24.9253279,96.9881161 C24.3067297,93.9727117 24.3067297,93.9280391 23.5997603,93.6153305 C22.8265125,93.3026219 21.9648936,93.2356129 22.031172,93.5036488 C22.1637287,93.9503754 21.6997801,95.692609 21.3242026,96.2286809 C20.7056044,97.0997977 19.7777071,97.4348427 18.2533043,97.2784884 C16.7068088,97.1444704 15.823097,96.7200801 14.6963646,95.5362547 C13.5254465,94.3077567 12.7521987,92.6548683 12.2882501,90.3542265 C12.0010438,88.8576925 11.8022086,88.3439569 11.3824455,88.008912 C10.3440842,87.2048041 9.34990854,86.8027502 8.06852652,86.7357412 C7.00807243,86.6687323 6.65458774,86.7357412 6.03598952,87.1377952 C4.97553544,87.874894 4.68832912,88.9470378 4.82088588,91.5380519 C5.1080922,96.6754075 7.33946433,101.567063 9.63711485,102.103135 C10.366177,102.281826 11.0952392,101.76809 11.2719816,100.963983 C11.4045383,100.316229 10.9184969,98.8420314 10.4987338,98.5739954 C10.0347851,98.2836231 10.7638473,97.7922239 11.6033735,97.7922239 C12.8847555,97.7922239 13.4370753,98.6186681 13.3266114,100.316229 C13.260333,101.321364 13.1056834,101.723418 12.619642,102.237153 C11.3824455,103.554997 8.57666077,103.77836 6.41156701,102.728553 L6.41156701,102.728553 Z M31.1334029,101.008655 C31.553166,100.852301 31.5752588,100.115202 31.2438669,98.3953048 L30.9787533,97.1221341 L29.7857425,97.1221341 L28.5706388,97.1221341 L28.7252884,97.7475513 C28.9683091,98.6633407 29.0124947,98.9760493 29.0345875,99.4227759 C29.0566803,99.8695025 30.2055056,101.142673 30.5589903,101.142673 C30.691547,101.142673 30.9345677,101.075664 31.1334029,101.008655 L31.1334029,101.008655 Z M30.5368975,95.8489633 C30.581083,95.7149454 30.4706191,94.7991559 30.2717839,93.8386938 C30.0729488,92.8782316 29.8520209,91.8954332 29.8078353,91.6273972 C29.4322578,89.6618003 28.65901,86.1549967 28.5927316,86.0879877 C28.5485461,86.0209787 28.0625046,85.9316334 27.5101848,85.8422881 C26.9799577,85.7529428 26.4497307,85.6412611 26.3392667,85.5742522 C26.2508955,85.5295795 26.2067099,85.7082701 26.2729883,85.9986424 C26.3392667,86.2666783 26.6485658,87.7632124 26.9578649,89.304419 C27.267164,90.8456257 27.6869271,92.7218773 27.8636695,93.4813125 C28.018319,94.2407477 28.1729686,95.0671918 28.1729686,95.3128914 C28.1729686,95.5585911 28.3276181,95.8489633 28.5264533,95.960645 C29.0124947,96.2286809 30.4485263,96.1393356 30.5368975,95.8489633 L30.5368975,95.8489633 Z M19.7997998,95.2012098 C19.9544494,94.7544832 19.9323566,94.5087836 19.6893359,94.2407477 C19.1149232,93.6153305 19.0265521,92.6772047 19.4684079,92.1858054 C19.8218926,91.7837515 19.8218926,91.6497335 19.5567791,90.5775898 C19.2253872,89.1927374 18.6730674,88.0535846 18.0102836,87.3611584 C17.4579637,86.7357412 16.3533241,86.6687323 16.0661177,87.2494768 C15.5137979,88.3662932 15.9998394,91.4710429 17.0823862,93.7270121 C18.0102836,95.6702727 19.3358512,96.3850352 19.7997998,95.2012098 L19.7997998,95.2012098 Z M28.3938965,85.0158439 C28.3718037,84.8594896 28.2392469,84.0777181 28.0845974,83.2959466 C27.5985559,81.0846501 26.6927514,80.191197 25.5439261,80.7942778 C25.1241631,81.0399774 25.1241631,81.1069864 25.4113694,81.9334306 C25.5881117,82.4248298 25.7206685,82.8938927 25.7206685,82.9385654 C25.6985757,83.0055744 25.7648541,83.4523009 25.8532253,83.9437002 C25.9636892,84.61379 26.1183388,84.8594896 26.4718235,84.948835 C26.736937,84.9935076 27.1567001,85.0828529 27.3997208,85.1275256 C28.2171542,85.3062162 28.3938965,85.2838799 28.3938965,85.0158439 L28.3938965,85.0158439 Z" id="Shape" fill="#000000" transform="translate(19.766790, 90.873005) scale(1, -1) translate(-19.766790, -90.873005) "></path>
                    <path d="M61.4226227,97.262633 C60.2958902,96.8605791 58.9924154,95.7884353 58.5284668,94.8949822 C58.0424253,93.9568564 58.0866109,92.2816317 58.6168379,91.2318243 C58.8598587,90.7627614 59.787756,89.5565997 60.6714677,88.5738012 C61.5330867,87.5910027 62.460984,86.3401683 62.7040047,85.7817601 C63.3005102,84.4192441 63.3005102,82.7216831 62.6598191,81.694212 C61.6656434,80.06366 59.1249722,79.996651 58.3075388,81.560194 C57.5342911,83.1014007 58.4400956,84.7096163 60.2737975,84.9776523 C60.8261173,85.0446613 60.9365813,85.2680246 60.6493749,85.7817601 C60.2737975,86.4965226 59.2354362,86.8539039 58.1749821,86.6752133 C55.8552388,86.2284867 54.5959495,83.9725175 55.2366405,81.4485124 C55.7668676,79.3935701 57.5784767,78.3437627 60.4726326,78.3884353 C64.8470057,78.4554443 67.5202337,81.1134674 67.2330274,85.1340066 C67.0783778,87.0772672 66.526058,88.0377293 64.1842219,90.3607075 C63.1900462,91.3435059 62.2400561,92.4156497 62.0633137,92.7506946 C61.4668083,93.9121837 61.7761074,95.5874084 62.6598191,96.0788076 C63.4109741,96.4808615 64.7807273,96.4138525 65.2888616,95.9447896 C65.9295526,95.3640451 65.885367,94.0238654 65.1783976,93.1750849 C64.6260778,92.5273314 64.6260778,92.504995 65.0458408,92.2816317 C66.415594,91.5221966 67.9399968,92.7953673 67.9399968,94.6492826 C67.9399968,95.69909 67.2993058,96.6595522 66.2609445,97.1509514 C65.1121192,97.7093596 62.7923759,97.7540323 61.4226227,97.262633 L61.4226227,97.262633 Z" id="Shape" fill="#000000" transform="translate(61.505168, 87.994860) scale(1, -1) translate(-61.505168, -87.994860) "></path>
                    <path d="M109.430263,97.0954271 C107.972139,96.8944001 107.972139,96.8944001 107.795396,96.067956 C107.707025,95.6212294 107.618654,95.2191755 107.596561,95.1521665 C107.596561,95.0851575 107.50819,94.6607672 107.419819,94.2140407 C107.287262,93.5886235 107.132612,93.3652602 106.845406,93.3652602 C106.580293,93.3652602 106.40355,93.1642332 106.315179,92.7845156 C106.248901,92.3824617 106.293086,92.2484438 106.514014,92.3377891 C106.668664,92.4047981 106.845406,92.3824617 106.911684,92.2931164 C106.95587,92.2037711 106.602385,90.3721922 106.138437,88.2279046 C105.210539,83.9169932 105.144261,83.2022307 105.564024,82.1300869 C105.961694,81.2142974 106.381457,80.8569162 107.331448,80.7005619 C108.391902,80.5442076 109.56282,81.1472884 110.004676,82.0854142 C110.468624,83.0458764 110.468624,83.0458764 109.761655,83.1352217 C109.275613,83.1798943 109.120964,83.3362486 109.076778,83.8053115 C109.0105,84.3413834 110.446531,91.8463898 110.689552,92.2484438 C110.733738,92.3377891 111.087222,92.3824617 111.4628,92.3601254 C111.816285,92.3377891 112.125584,92.4047981 112.125584,92.4941434 C112.125584,92.5834887 112.191862,92.806852 112.25814,93.0078789 C112.368604,93.2982512 112.236048,93.3652602 111.617449,93.3652602 L110.844202,93.3652602 L111.263965,95.2191755 C111.484893,96.2243103 111.683728,97.1177634 111.683728,97.2071087 C111.683728,97.363463 111.551171,97.363463 109.430263,97.0954271 L109.430263,97.0954271 Z" id="Shape" fill="#000000" transform="translate(108.804991, 88.994568) scale(1, -1) translate(-108.804991, -88.994568) "></path>
                    <path d="M97.3896905,103.32598 C96.1304012,103.281307 95.7769165,103.191962 95.6885454,102.879253 C95.6001742,102.588881 94.8269264,98.992732 93.8990291,94.5254662 C93.58973,93.0065959 92.1757912,91.8674431 91.2037083,92.3141697 C90.5409245,92.6268783 90.5409245,92.73856 91.7781209,98.5460054 L92.5955543,102.387854 L90.806038,102.387854 L88.9944289,102.387854 L88.3979235,99.6628218 C86.851428,92.3588424 86.8072424,92.0237974 87.6909541,90.6612814 C88.3758307,89.5891376 90.4967389,89.4997923 92.197884,90.4379181 C92.7060182,90.7282904 93.1257813,90.906981 93.1257813,90.8176357 C93.1257813,90.7282904 92.7722966,89.0977384 92.3746263,87.1991505 C91.9548633,85.3005625 91.6455642,83.7146832 91.6897497,83.6700105 C91.7339353,83.6030015 93.3246165,83.9380465 94.6943697,84.2954277 C95.401339,84.4964547 95.511803,84.6304727 95.6443598,85.3899078 C95.7106382,85.8813071 95.9757517,87.1768141 96.2408652,88.2712942 L96.6827211,90.2815638 L97.433876,89.9688552 C99.0687428,89.276429 101.454764,89.9688552 102.714054,91.4653892 C105.05589,94.2574303 105.60821,100.712629 103.641951,102.008136 C102.824518,102.544208 101.521043,102.611217 100.239661,102.186827 L99.0908356,101.784773 L99.2233923,102.499536 C99.2896707,102.901589 99.2675779,103.258971 99.1571139,103.303643 C99.0687428,103.348316 98.2734022,103.370652 97.3896905,103.32598 L97.3896905,103.32598 Z M101.278022,99.8638488 C101.543136,99.1714226 101.388486,96.7367628 100.968723,95.3295741 C100.482682,93.6543494 99.8640833,92.6492146 99.0024644,92.2471607 C97.2792265,91.4207166 97.014113,91.8451068 97.5885256,94.5701389 C97.8315463,95.731628 98.0745671,97.0047987 98.1187526,97.36218 C98.4501445,99.3501132 99.0024644,100.332912 99.9745473,100.64562 C100.438496,100.801975 101.079187,100.422257 101.278022,99.8638488 L101.278022,99.8638488 Z" id="Shape" fill="#000000" transform="translate(95.975919, 93.505865) scale(1, -1) translate(-95.975919, -93.505865) "></path>
                    <path d="M40.2577266,97.0177115 C38.4461175,96.3476216 37.1205499,94.806415 36.2147454,92.2824098 C35.1763841,89.4010234 35.2868481,86.7653367 36.5240445,85.4251569 C38.0926328,83.727596 41.7379437,84.1966589 44.1018726,86.4079554 C44.6100069,86.8770183 45.0739556,87.2790722 45.1181411,87.2790722 C45.1402339,87.2790722 45.1844195,87.0780453 45.1844195,86.8323457 C45.1844195,86.6089824 45.559997,86.0059015 46.0239457,85.5145023 C46.7088223,84.7774034 47.0181214,84.6210491 48.0785755,84.4870311 C50.2878548,84.2189952 51.9448143,85.0007667 52.7180621,86.6983277 C53.3366603,88.0608437 53.2482891,88.2618707 52.3203918,87.6364535 C50.2215764,86.2516011 48.7192665,86.7653367 48.7192665,88.8426152 C48.7192665,89.4233598 48.8297304,89.5127051 49.6692566,89.7360684 C52.4529486,90.4284946 54.1320009,92.1260555 54.4192072,94.4937064 C54.6180423,96.302949 53.6017738,97.3304201 51.657608,97.3304201 C48.2553178,97.2857474 45.7588322,94.4043611 45.0739556,89.6913957 C44.8309348,88.0385074 42.9530474,86.6089824 41.0309744,86.6089824 C39.7716851,86.6089824 39.2193653,87.1897269 39.2193653,88.5075703 C39.2193653,89.4233598 39.2635509,89.5127051 39.8379635,89.6467231 C42.1135212,90.1604586 43.6600168,91.2549387 44.4332645,92.9524997 C45.2727907,94.7840786 45.0518628,96.369958 43.8367591,97.0177115 C43.0635114,97.3974291 41.3623663,97.3974291 40.2577266,97.0177115 L40.2577266,97.0177115 Z M42.6216555,95.8562224 C43.4390888,95.5435138 42.7321195,92.8631544 41.5832942,91.9026923 C40.964696,91.411293 39.683314,90.7635395 39.5507572,90.8975575 C39.1972725,91.2549387 40.8100464,94.9180966 41.605387,95.5435138 C42.2239852,96.0572494 42.1577068,96.034913 42.6216555,95.8562224 L42.6216555,95.8562224 Z M52.3645774,94.7170697 C52.3424846,93.2875446 51.5029585,91.9697012 50.1773908,91.2996114 C48.98438,90.7412032 48.9401944,90.7412032 49.0727512,91.4336293 C49.3378647,92.8854907 50.7738963,95.5658501 51.4145873,95.8338861 C52.1436495,96.1465947 52.3645774,95.8785587 52.3645774,94.7170697 L52.3645774,94.7170697 Z" id="Shape" fill="#000000" transform="translate(44.976287, 90.865467) scale(1, -1) translate(-44.976287, -90.865467) "></path>
                    <path d="M73.1318032,97.1354431 C70.9225239,96.4206806 69.199286,94.1200387 68.4702238,90.94828 C67.80744,87.9775483 68.3597599,85.5428885 69.9062554,84.828126 C71.9608852,83.8900002 75.0759691,84.6494354 76.8875781,86.5480233 L77.4840836,87.1734405 L77.3515268,86.2799874 C77.2631556,85.7885881 77.1526917,85.2078436 77.0864133,85.0068166 C76.9759493,84.6494354 77.1526917,84.6047627 78.831744,84.6047627 L80.6875386,84.6047627 L81.504972,88.6923109 C82.5654261,93.9190118 82.6537972,94.1647114 83.4933234,94.6784469 C83.8689009,94.9018102 84.2444784,95.1028372 84.3328495,95.1028372 C84.3991279,95.1028372 84.6642414,94.7231196 84.8851694,94.276393 C85.2386541,93.5169578 85.3712108,93.4276125 86.0560874,93.4722852 C88.1769956,93.5616305 88.0886244,97.1131067 85.989809,97.1131067 C85.349118,97.1131067 84.2444784,96.6663802 83.4933234,96.107972 C83.0514675,95.772927 83.0514675,95.7952634 83.1398387,96.4430169 L83.2282099,97.1131067 L81.4607864,97.1131067 C79.9584764,97.1131067 79.6712701,97.0460978 79.5608061,96.7333892 C79.4945278,96.5100259 79.1189503,94.7231196 78.72128,92.7575227 C78.080589,89.5634277 77.9259394,89.0943648 77.3073412,88.4019386 C75.8492168,86.7713866 73.3085456,86.1012967 72.3585555,87.0617589 C71.2097302,88.223248 72.4690194,93.8743391 74.2143501,95.5495637 C75.0980619,96.3760079 75.5841033,95.9516177 75.5178249,94.4550836 C75.4957321,93.8296664 75.5399177,93.3159309 75.6282889,93.2935945 C75.7166601,93.2935945 75.9596808,93.2489219 76.1585159,93.2042492 C76.8433925,93.0702313 77.5061763,93.8296664 77.5503619,94.7677922 C77.6166403,95.9292813 77.3073412,96.5770349 76.4457223,97.0014251 C75.7166601,97.33647 73.9492366,97.4258153 73.1318032,97.1354431 L73.1318032,97.1354431 Z" id="Shape" fill="#000000" transform="translate(77.900152, 90.868492) scale(1, -1) translate(-77.900152, -90.868492) "></path>
                </g>
            </g>
        </g>
    </g>
</svg>